<svg width="40" height="40" viewBox="0 0 40 40" fill="none" xmlns="http://www.w3.org/2000/svg">
<g clip-path="url(#clip0_717_67)">
<path d="M34.0025 5.81488C32.1687 3.96407 29.9848 2.49674 27.5783 1.49839C25.1717 0.500044 22.5904 -0.00935482 19.985 -0.000120814C9.0675 -0.000120814 0.17 8.89488 0.16 19.8149C0.16 23.3124 1.075 26.7149 2.8025 29.7274L0 39.9999L10.51 37.2449C13.4175 38.8272 16.6748 39.6565 19.985 39.6574H19.995C30.915 39.6574 39.81 30.7624 39.82 19.8324C39.8225 17.2275 39.3095 14.6478 38.3107 12.2421C37.3118 9.8363 35.8468 7.65196 34 5.81488H34.0025ZM19.985 36.3024C17.0325 36.3034 14.1343 35.5089 11.595 34.0024L10.995 33.6424L4.76 35.2774L6.425 29.1949L6.035 28.5674C4.38452 25.9432 3.51162 22.9049 3.5175 19.8049C3.5175 10.7399 10.91 3.34488 19.995 3.34488C22.1594 3.341 24.3031 3.76557 26.3026 4.59411C28.302 5.42265 30.1177 6.63878 31.645 8.17238C33.1776 9.7 34.3925 11.5159 35.2198 13.5155C36.0471 15.515 36.4703 17.6585 36.465 19.8224C36.455 28.9199 29.0625 36.3024 19.985 36.3024ZM29.0225 23.9674C28.53 23.7199 26.0975 22.5224 25.64 22.3524C25.185 22.1899 24.8525 22.1049 24.5275 22.5999C24.195 23.0924 23.245 24.2149 22.96 24.5374C22.675 24.8699 22.38 24.9074 21.885 24.6624C21.3925 24.4124 19.795 23.8924 17.905 22.1999C16.43 20.8874 15.4425 19.2624 15.1475 18.7699C14.8625 18.2749 15.12 18.0099 15.3675 17.7624C15.585 17.5424 15.86 17.1824 16.1075 16.8974C16.3575 16.6124 16.44 16.4024 16.6025 16.0724C16.765 15.7374 16.6875 15.4524 16.565 15.2049C16.44 14.9574 15.4525 12.5149 15.035 11.5299C14.635 10.5574 14.2275 10.6924 13.9225 10.6799C13.6375 10.6624 13.305 10.6624 12.9725 10.6624C12.7214 10.6686 12.4743 10.7267 12.2467 10.833C12.0192 10.9392 11.816 11.0914 11.65 11.2799C11.195 11.7749 9.9225 12.9724 9.9225 15.4149C9.9225 17.8574 11.6975 20.2049 11.9475 20.5374C12.1925 20.8699 15.4325 25.8674 20.405 28.0174C21.58 28.5299 22.505 28.8324 23.2275 29.0624C24.415 29.4424 25.4875 29.3849 26.3425 29.2624C27.2925 29.1174 29.27 28.0624 29.6875 26.9049C30.0975 25.7449 30.0975 24.7549 29.9725 24.5474C29.85 24.3374 29.5175 24.2149 29.0225 23.9674Z" fill="white"/>
</g>
<defs>
<clipPath id="clip0_717_67">
<rect width="40" height="40" fill="white"/>
</clipPath>
</defs>
</svg>
